<svg width="357" height="56" viewBox="0 0 357 56" fill="none" xmlns="http://www.w3.org/2000/svg">
<g clip-path="url(#clip0_749_1562)">
<path d="M79.0038 45.8645C77.535 45.8645 76.7441 44.7887 76.7441 43.3731C76.7441 41.8443 77.1961 41.0516 78.2129 39.8059L91.4885 23.4419C93.0703 21.4601 94.652 19.9313 96.1773 18.5157C94.2001 18.7988 92.2229 19.0253 90.0197 19.0253H80.0207C78.6649 19.0253 77.9305 18.1193 77.9305 16.817C77.9305 15.5147 78.6649 14.4955 80.0207 14.4955H99.2279C100.64 14.4955 101.375 15.5713 101.375 16.9869C101.375 18.5157 100.866 19.3084 99.9058 20.4975L86.5172 37.0314C85.1049 38.8433 83.5232 40.3721 81.7719 41.9009C83.6361 41.5612 85.4439 41.2781 87.3646 41.2781H100.188C101.601 41.2781 102.222 42.1841 102.222 43.4864C102.222 44.7887 101.488 45.8645 100.188 45.8645H79.0038Z" fill="white" stroke="white" stroke-width="3" stroke-miterlimit="10"/>
<path d="M115.893 31.1426C116.006 38.1072 119.452 42.4672 125.553 42.4672C129.621 42.4672 131.88 40.4287 133.236 37.4277C133.744 36.4085 134.479 36.0122 135.27 36.0122C135.665 36.0122 136.061 36.1254 136.456 36.2387C137.416 36.5218 138.207 37.2012 138.207 38.2205C138.207 38.5602 138.151 38.8999 137.925 39.2397C136.117 42.9768 132.841 46.7139 125.497 46.7139C116.232 46.7139 110.865 40.1456 110.865 30.3499C110.865 20.5541 115.949 13.7028 125.158 13.7028C133.405 13.7028 138.038 20.1578 138.603 27.5754V28.0283C138.603 30.0668 137.529 31.1426 135.778 31.1426H115.893ZM132.615 27.0091C133.236 27.0091 133.462 26.7826 133.462 26.273V25.9899C132.784 21.9697 130.355 17.8362 125.158 17.8362C119.96 17.8362 116.797 21.4601 116.062 27.0091H132.615Z" fill="white" stroke="white" stroke-width="3" stroke-miterlimit="10"/>
<path d="M149.788 16.364C149.788 14.8918 150.861 14.1557 152.443 14.1557C153.856 14.1557 154.985 14.8918 154.985 16.364V17.6097C154.985 18.4024 154.759 19.365 154.646 20.271C155.55 17.5531 158.431 14.0425 163.29 13.8726C163.742 13.816 164.137 13.816 164.532 13.816C165.38 13.816 166.001 13.9292 166.792 14.0991C168.091 14.269 168.6 15.0617 168.6 16.1375C168.6 16.4206 168.543 16.7604 168.487 17.1001C168.261 18.2892 167.47 19.3084 166.284 19.3084C166.114 19.3084 165.945 19.3084 165.775 19.2518C164.984 19.0819 164.25 18.912 163.064 18.912C160.635 18.9687 158.77 20.2144 157.358 22.0263C155.889 23.8382 155.042 25.9333 154.985 28.3114V43.9393C154.985 45.4682 153.856 46.2043 152.443 46.2043C150.861 46.2043 149.788 45.4682 149.788 43.9393V16.364Z" fill="white" stroke="white" stroke-width="3" stroke-miterlimit="10"/>
<path d="M205.15 30.1234C205.15 39.9758 199.727 46.7705 190.914 46.7705C181.593 46.7705 176.17 40.2023 176.17 30.1234C176.17 20.0445 181.65 13.7028 190.801 13.7028C199.953 13.7028 205.15 20.271 205.15 30.1234ZM181.367 30.2933C181.367 37.4844 184.757 42.4105 190.575 42.4105C196.733 42.4105 199.953 37.5976 199.953 30.0668C199.953 22.9323 196.733 18.0627 190.971 18.0627C184.87 18.0627 181.367 22.7624 181.367 30.2933Z" fill="white" stroke="white" stroke-width="3" stroke-miterlimit="10"/>
<path d="M228.708 13.6461C236.165 13.6461 239.215 17.7796 240.627 21.3468C240.74 21.6299 240.797 21.9697 240.797 22.1962C240.797 23.272 239.949 23.9515 239.102 24.2912C238.707 24.4045 238.255 24.4611 237.859 24.4611C237.012 24.4611 236.278 24.1213 235.882 23.1588C234.809 20.271 233.114 18.0627 228.821 18.0627C222.945 18.0627 219.725 23.0455 219.725 30.2366C219.725 37.4277 222.889 42.3539 228.877 42.3539C233.283 42.3539 235.035 40.2022 236.108 37.1446C236.503 36.0688 237.294 35.6158 238.198 35.6158C238.594 35.6158 238.989 35.6724 239.385 35.8423C240.401 36.0688 241.192 36.7482 241.192 37.7675C241.192 38.1072 241.136 38.3903 240.966 38.7867C239.441 42.6936 236.447 46.7705 228.764 46.7705C219.612 46.7705 214.472 40.0324 214.472 30.2932C214.472 20.5541 219.443 13.6461 228.708 13.6461Z" fill="white" stroke="white" stroke-width="3" stroke-miterlimit="10"/>
<path d="M278.985 30.1234C278.985 39.9758 273.562 46.7705 264.749 46.7705C255.428 46.7705 250.005 40.2023 250.005 30.1234C250.005 20.0445 255.485 13.7028 264.636 13.7028C273.788 13.7028 278.985 20.271 278.985 30.1234ZM255.202 30.2933C255.202 37.4844 258.592 42.4105 264.41 42.4105C270.568 42.4105 273.788 37.5976 273.788 30.0668C273.788 22.9323 270.568 18.0627 264.806 18.0627C258.705 18.0627 255.202 22.7624 255.202 30.2933Z" fill="white" stroke="white" stroke-width="3" stroke-miterlimit="10"/>
<path d="M311.977 3.6805C311.977 2.15169 313.05 1.41559 314.462 1.41559C316.044 1.41559 317.004 2.15169 317.004 3.6805V43.9394C317.004 45.4682 315.988 46.2043 314.406 46.2043C312.824 46.2043 311.977 45.2983 311.977 44.1092V42.9201C311.977 42.2973 312.09 41.1082 312.146 40.3155C310.225 44.2791 307.005 46.7139 301.752 46.7139C293.504 46.7139 288.307 40.2022 288.307 30.0101C288.307 19.818 293.447 13.7027 301.808 13.7027C307.062 13.7027 310.225 16.1942 312.203 20.2144C312.09 18.912 311.977 17.27 311.977 16.0243V3.6805ZM293.504 30.0668C293.504 37.4843 296.78 42.2973 302.486 42.2973C308.192 42.2973 312.09 37.1446 312.09 30.1234C312.09 23.1021 308.7 18.1193 302.486 18.1193C296.78 18.1193 293.504 22.8757 293.504 30.0668Z" fill="white" stroke="white" stroke-width="3" stroke-miterlimit="10"/>
<path d="M332.878 31.1426C332.991 38.1072 336.437 42.4672 342.538 42.4672C346.606 42.4672 348.866 40.4287 350.221 37.4277C350.73 36.4085 351.464 36.0122 352.255 36.0122C352.651 36.0122 353.046 36.1254 353.441 36.2387C354.402 36.5218 355.193 37.2012 355.193 38.2205C355.193 38.5602 355.136 38.8999 354.91 39.2397C353.102 42.9768 349.826 46.7139 342.482 46.7139C333.217 46.7139 327.851 40.1456 327.851 30.3499C327.851 20.5541 332.935 13.7028 342.143 13.7028C350.391 13.7028 355.023 20.1578 355.588 27.5754V28.0283C355.588 30.0668 354.515 31.1426 352.763 31.1426H332.878ZM349.6 27.0091C350.221 27.0091 350.447 26.7826 350.447 26.273V25.9899C349.769 21.9697 347.34 17.8362 342.143 17.8362C336.946 17.8362 333.782 21.4601 333.048 27.0091H349.6Z" fill="white" stroke="white" stroke-width="3" stroke-miterlimit="10"/>
<path d="M50.0895 1.73645H11.1101C8.87413 1.73645 7.06152 3.55327 7.06152 5.79442C7.06152 8.03558 8.87413 9.85239 11.1101 9.85239H50.0895C52.3254 9.85239 54.138 8.03558 54.138 5.79442C54.138 3.55327 52.3254 1.73645 50.0895 1.73645Z" fill="white" stroke="white" stroke-miterlimit="10"/>
<path d="M31.1839 42.9012L53.5358 7.82338C54.7692 5.88877 54.0348 3.38793 51.8975 2.27434C49.7602 1.16076 47.011 1.8308 45.7776 3.75597L23.4256 38.8338C22.1922 40.7684 22.9266 43.2693 25.0639 44.3829C27.2012 45.4965 29.9505 44.8264 31.1839 42.9012Z" fill="white" stroke="white" stroke-miterlimit="10"/>
<path d="M4.51992 55.5281L43.4993 55.5281C45.7352 55.5281 47.5479 53.7113 47.5479 51.4702C47.5479 49.229 45.7352 47.4122 43.4993 47.4122L4.51992 47.4122C2.28395 47.4122 0.471344 49.229 0.471344 51.4702C0.471344 53.7113 2.28395 55.5281 4.51992 55.5281Z" fill="white" stroke="white" stroke-miterlimit="10"/>
<path d="M23.426 14.3633L1.07408 49.4412C-0.15932 51.3758 0.575074 53.8766 2.71235 54.9902C4.84962 56.1038 7.59889 55.4338 8.83229 53.5086L31.1842 18.4307C32.4176 16.4961 31.6832 13.9953 29.546 12.8817C27.4087 11.7681 24.6594 12.4382 23.426 14.3633Z" fill="white" stroke="white" stroke-miterlimit="10"/>
</g>
<defs>
<clipPath id="clip0_749_1562">
<rect width="357" height="56" fill="white"/>
</clipPath>
</defs>
</svg>
